<svg width="30" height="30" viewBox="0 0 30 30" fill="none" xmlns="http://www.w3.org/2000/svg">
<path fill-rule="evenodd" clip-rule="evenodd" d="M8 13.9287C11.3923 13.4434 14 10.5264 14 7C14 3.13379 10.866 0 7 0C3.47351 0 0.556152 2.60742 0.0709229 6H0V7V14H7H8V13.9287Z" fill="#7394FF"/>
<path fill-rule="evenodd" clip-rule="evenodd" d="M13.9291 22C13.4439 18.6077 10.5265 16 7 16C3.13401 16 0 19.134 0 23C0 26.5265 2.60771 29.4439 6 29.9291V30H7H14L14 23L14 22H13.9291Z" fill="#7394FF"/>
<path fill-rule="evenodd" clip-rule="evenodd" d="M22 16.0709C18.6077 16.5561 16 19.4735 16 23C16 26.866 19.134 30 23 30C26.5265 30 29.4439 27.3923 29.9291 24H30V23L30 16L23 16H22V16.0709Z" fill="#7394FF"/>
<path fill-rule="evenodd" clip-rule="evenodd" d="M16.0709 8C16.5561 11.3923 19.4735 14 23 14C26.866 14 30 10.866 30 7C30 3.47353 27.3923 0.556118 24 0.0708889V0L23 0L16 0L16 7V8H16.0709Z" fill="#7394FF"/>
</svg>
