<svg width="983" height="179" viewBox="0 0 983 179" fill="none" xmlns="http://www.w3.org/2000/svg">
<path d="M23 104H974" stroke="#4A4A4A"/>
<path d="M23 152H974" stroke="#4A4A4A"/>
<path d="M32 8H983" stroke="#4A4A4A"/>
<path d="M32 56H983" stroke="#4A4A4A"/>
<path d="M6.98428 151.048C6.98428 150.131 7.13361 149.416 7.43228 148.904C7.73095 148.387 8.25361 148.128 9.00028 148.128C9.74161 148.128 10.2616 148.387 10.5603 148.904C10.8589 149.416 11.0083 150.131 11.0083 151.048C11.0083 151.981 10.8589 152.707 10.5603 153.224C10.2616 153.741 9.74161 154 9.00028 154C8.25361 154 7.73095 153.741 7.43228 153.224C7.13361 152.707 6.98428 151.981 6.98428 151.048ZM10.2883 151.048C10.2883 150.584 10.2563 150.192 10.1923 149.872C10.1336 149.547 10.0083 149.285 9.81628 149.088C9.62961 148.891 9.35761 148.792 9.00028 148.792C8.63761 148.792 8.36028 148.891 8.16828 149.088C7.98161 149.285 7.85628 149.547 7.79228 149.872C7.73361 150.192 7.70428 150.584 7.70428 151.048C7.70428 151.528 7.73361 151.931 7.79228 152.256C7.85628 152.581 7.98161 152.843 8.16828 153.04C8.36028 153.237 8.63761 153.336 9.00028 153.336C9.35761 153.336 9.62961 153.237 9.81628 153.04C10.0083 152.843 10.1336 152.581 10.1923 152.256C10.2563 151.931 10.2883 151.528 10.2883 151.048Z" fill="white"/>
<path d="M37.6723 170.848H34.8643V172.672C34.9869 172.501 35.1683 172.363 35.4083 172.256C35.6483 172.144 35.9069 172.088 36.1843 172.088C36.6269 172.088 36.9869 172.181 37.2643 172.368C37.5416 172.549 37.7389 172.787 37.8563 173.08C37.9789 173.368 38.0403 173.675 38.0403 174C38.0403 174.384 37.9683 174.728 37.8243 175.032C37.6803 175.336 37.4589 175.576 37.1603 175.752C36.8669 175.928 36.5016 176.016 36.0643 176.016C35.5043 176.016 35.0509 175.872 34.7043 175.584C34.3576 175.296 34.1469 174.912 34.0723 174.432H34.7843C34.8536 174.736 35.0003 174.973 35.2243 175.144C35.4483 175.315 35.7309 175.4 36.0723 175.4C36.4936 175.4 36.8109 175.275 37.0243 175.024C37.2376 174.768 37.3443 174.432 37.3443 174.016C37.3443 173.6 37.2376 173.28 37.0243 173.056C36.8109 172.827 36.4963 172.712 36.0803 172.712C35.7976 172.712 35.5496 172.781 35.3363 172.92C35.1283 173.053 34.9763 173.237 34.8803 173.472H34.1923V170.208H37.6723V170.848Z" fill="white"/>
<path d="M91.511 170.88V170.216H93.015V176H92.279V170.88H91.511ZM94.2655 173.048C94.2655 172.131 94.4149 171.416 94.7135 170.904C95.0122 170.387 95.5349 170.128 96.2815 170.128C97.0229 170.128 97.5429 170.387 97.8415 170.904C98.1402 171.416 98.2895 172.131 98.2895 173.048C98.2895 173.981 98.1402 174.707 97.8415 175.224C97.5429 175.741 97.0229 176 96.2815 176C95.5349 176 95.0122 175.741 94.7135 175.224C94.4149 174.707 94.2655 173.981 94.2655 173.048ZM97.5695 173.048C97.5695 172.584 97.5375 172.192 97.4735 171.872C97.4149 171.547 97.2895 171.285 97.0975 171.088C96.9109 170.891 96.6389 170.792 96.2815 170.792C95.9189 170.792 95.6415 170.891 95.4495 171.088C95.2629 171.285 95.1375 171.547 95.0735 171.872C95.0149 172.192 94.9855 172.584 94.9855 173.048C94.9855 173.528 95.0149 173.931 95.0735 174.256C95.1375 174.581 95.2629 174.843 95.4495 175.04C95.6415 175.237 95.9189 175.336 96.2815 175.336C96.6389 175.336 96.9109 175.237 97.0975 175.04C97.2895 174.843 97.4149 174.581 97.4735 174.256C97.5375 173.931 97.5695 173.528 97.5695 173.048Z" fill="white"/>
<path d="M151.511 170.88V170.216H153.015V176H152.279V170.88H151.511ZM157.954 170.848H155.146V172.672C155.268 172.501 155.45 172.363 155.69 172.256C155.93 172.144 156.188 172.088 156.466 172.088C156.908 172.088 157.268 172.181 157.546 172.368C157.823 172.549 158.02 172.787 158.138 173.08C158.26 173.368 158.322 173.675 158.322 174C158.322 174.384 158.25 174.728 158.106 175.032C157.962 175.336 157.74 175.576 157.442 175.752C157.148 175.928 156.783 176.016 156.346 176.016C155.786 176.016 155.332 175.872 154.986 175.584C154.639 175.296 154.428 174.912 154.354 174.432H155.066C155.135 174.736 155.282 174.973 155.506 175.144C155.73 175.315 156.012 175.4 156.354 175.4C156.775 175.4 157.092 175.275 157.306 175.024C157.519 174.768 157.626 174.432 157.626 174.016C157.626 173.6 157.519 173.28 157.306 173.056C157.092 172.827 156.778 172.712 156.362 172.712C156.079 172.712 155.831 172.781 155.618 172.92C155.41 173.053 155.258 173.237 155.162 173.472H154.474V170.208H157.954V170.848Z" fill="white"/>
<path d="M211.596 175.416C212.273 174.872 212.804 174.427 213.188 174.08C213.572 173.728 213.894 173.363 214.156 172.984C214.422 172.6 214.556 172.224 214.556 171.856C214.556 171.509 214.47 171.237 214.3 171.04C214.134 170.837 213.865 170.736 213.492 170.736C213.129 170.736 212.846 170.851 212.644 171.08C212.446 171.304 212.34 171.605 212.324 171.984H211.62C211.641 171.387 211.822 170.925 212.164 170.6C212.505 170.275 212.945 170.112 213.484 170.112C214.033 170.112 214.468 170.264 214.788 170.568C215.113 170.872 215.276 171.291 215.276 171.824C215.276 172.267 215.142 172.699 214.876 173.12C214.614 173.536 214.316 173.904 213.98 174.224C213.644 174.539 213.214 174.907 212.692 175.328H215.444V175.936H211.596V175.416ZM216.285 173.048C216.285 172.131 216.434 171.416 216.733 170.904C217.032 170.387 217.554 170.128 218.301 170.128C219.042 170.128 219.562 170.387 219.861 170.904C220.16 171.416 220.309 172.131 220.309 173.048C220.309 173.981 220.16 174.707 219.861 175.224C219.562 175.741 219.042 176 218.301 176C217.554 176 217.032 175.741 216.733 175.224C216.434 174.707 216.285 173.981 216.285 173.048ZM219.589 173.048C219.589 172.584 219.557 172.192 219.493 171.872C219.434 171.547 219.309 171.285 219.117 171.088C218.93 170.891 218.658 170.792 218.301 170.792C217.938 170.792 217.661 170.891 217.469 171.088C217.282 171.285 217.157 171.547 217.093 171.872C217.034 172.192 217.005 172.584 217.005 173.048C217.005 173.528 217.034 173.931 217.093 174.256C217.157 174.581 217.282 174.843 217.469 175.04C217.661 175.237 217.938 175.336 218.301 175.336C218.658 175.336 218.93 175.237 219.117 175.04C219.309 174.843 219.434 174.581 219.493 174.256C219.557 173.931 219.589 173.528 219.589 173.048Z" fill="white"/>
<path d="M273.596 175.416C274.273 174.872 274.804 174.427 275.188 174.08C275.572 173.728 275.894 173.363 276.156 172.984C276.422 172.6 276.556 172.224 276.556 171.856C276.556 171.509 276.47 171.237 276.3 171.04C276.134 170.837 275.865 170.736 275.492 170.736C275.129 170.736 274.846 170.851 274.644 171.08C274.446 171.304 274.34 171.605 274.324 171.984H273.62C273.641 171.387 273.822 170.925 274.164 170.6C274.505 170.275 274.945 170.112 275.484 170.112C276.033 170.112 276.468 170.264 276.788 170.568C277.113 170.872 277.276 171.291 277.276 171.824C277.276 172.267 277.142 172.699 276.876 173.12C276.614 173.536 276.316 173.904 275.98 174.224C275.644 174.539 275.214 174.907 274.692 175.328H277.444V175.936H273.596V175.416ZM281.973 170.848H279.165V172.672C279.288 172.501 279.469 172.363 279.709 172.256C279.949 172.144 280.208 172.088 280.485 172.088C280.928 172.088 281.288 172.181 281.565 172.368C281.842 172.549 282.04 172.787 282.157 173.08C282.28 173.368 282.341 173.675 282.341 174C282.341 174.384 282.269 174.728 282.125 175.032C281.981 175.336 281.76 175.576 281.461 175.752C281.168 175.928 280.802 176.016 280.365 176.016C279.805 176.016 279.352 175.872 279.005 175.584C278.658 175.296 278.448 174.912 278.373 174.432H279.085C279.154 174.736 279.301 174.973 279.525 175.144C279.749 175.315 280.032 175.4 280.373 175.4C280.794 175.4 281.112 175.275 281.325 175.024C281.538 174.768 281.645 174.432 281.645 174.016C281.645 173.6 281.538 173.28 281.325 173.056C281.112 172.827 280.797 172.712 280.381 172.712C280.098 172.712 279.85 172.781 279.637 172.92C279.429 173.053 279.277 173.237 279.181 173.472H278.493V170.208H281.973V170.848Z" fill="white"/>
<path d="M335.613 171.672C335.65 171.181 335.839 170.797 336.181 170.52C336.522 170.243 336.965 170.104 337.509 170.104C337.871 170.104 338.183 170.171 338.445 170.304C338.711 170.432 338.911 170.608 339.045 170.832C339.183 171.056 339.253 171.309 339.253 171.592C339.253 171.923 339.157 172.208 338.965 172.448C338.778 172.688 338.533 172.843 338.229 172.912V172.952C338.575 173.037 338.85 173.205 339.053 173.456C339.255 173.707 339.357 174.035 339.357 174.44C339.357 174.744 339.287 175.019 339.149 175.264C339.01 175.504 338.802 175.693 338.525 175.832C338.247 175.971 337.914 176.04 337.525 176.04C336.959 176.04 336.495 175.893 336.133 175.6C335.77 175.301 335.567 174.88 335.525 174.336H336.229C336.266 174.656 336.397 174.917 336.621 175.12C336.845 175.323 337.143 175.424 337.517 175.424C337.89 175.424 338.173 175.328 338.365 175.136C338.562 174.939 338.661 174.685 338.661 174.376C338.661 173.976 338.527 173.688 338.261 173.512C337.994 173.336 337.591 173.248 337.053 173.248H336.869V172.64H337.061C337.551 172.635 337.922 172.555 338.173 172.4C338.423 172.24 338.549 171.995 338.549 171.664C338.549 171.381 338.455 171.155 338.269 170.984C338.087 170.813 337.826 170.728 337.485 170.728C337.154 170.728 336.887 170.813 336.685 170.984C336.482 171.155 336.362 171.384 336.325 171.672H335.613ZM340.34 173.048C340.34 172.131 340.489 171.416 340.788 170.904C341.086 170.387 341.609 170.128 342.356 170.128C343.097 170.128 343.617 170.387 343.916 170.904C344.214 171.416 344.364 172.131 344.364 173.048C344.364 173.981 344.214 174.707 343.916 175.224C343.617 175.741 343.097 176 342.356 176C341.609 176 341.086 175.741 340.788 175.224C340.489 174.707 340.34 173.981 340.34 173.048ZM343.644 173.048C343.644 172.584 343.612 172.192 343.548 171.872C343.489 171.547 343.364 171.285 343.172 171.088C342.985 170.891 342.713 170.792 342.356 170.792C341.993 170.792 341.716 170.891 341.524 171.088C341.337 171.285 341.212 171.547 341.148 171.872C341.089 172.192 341.06 172.584 341.06 173.048C341.06 173.528 341.089 173.931 341.148 174.256C341.212 174.581 341.337 174.843 341.524 175.04C341.716 175.237 341.993 175.336 342.356 175.336C342.713 175.336 342.985 175.237 343.172 175.04C343.364 174.843 343.489 174.581 343.548 174.256C343.612 173.931 343.644 173.528 343.644 173.048Z" fill="white"/>
<path d="M397.613 171.672C397.65 171.181 397.839 170.797 398.181 170.52C398.522 170.243 398.965 170.104 399.509 170.104C399.871 170.104 400.183 170.171 400.445 170.304C400.711 170.432 400.911 170.608 401.045 170.832C401.183 171.056 401.253 171.309 401.253 171.592C401.253 171.923 401.157 172.208 400.965 172.448C400.778 172.688 400.533 172.843 400.229 172.912V172.952C400.575 173.037 400.85 173.205 401.053 173.456C401.255 173.707 401.357 174.035 401.357 174.44C401.357 174.744 401.287 175.019 401.149 175.264C401.01 175.504 400.802 175.693 400.525 175.832C400.247 175.971 399.914 176.04 399.525 176.04C398.959 176.04 398.495 175.893 398.133 175.6C397.77 175.301 397.567 174.88 397.525 174.336H398.229C398.266 174.656 398.397 174.917 398.621 175.12C398.845 175.323 399.143 175.424 399.517 175.424C399.89 175.424 400.173 175.328 400.365 175.136C400.562 174.939 400.661 174.685 400.661 174.376C400.661 173.976 400.527 173.688 400.261 173.512C399.994 173.336 399.591 173.248 399.053 173.248H398.869V172.64H399.061C399.551 172.635 399.922 172.555 400.173 172.4C400.423 172.24 400.549 171.995 400.549 171.664C400.549 171.381 400.455 171.155 400.269 170.984C400.087 170.813 399.826 170.728 399.485 170.728C399.154 170.728 398.887 170.813 398.685 170.984C398.482 171.155 398.362 171.384 398.325 171.672H397.613ZM406.028 170.848H403.22V172.672C403.342 172.501 403.524 172.363 403.764 172.256C404.004 172.144 404.262 172.088 404.54 172.088C404.982 172.088 405.342 172.181 405.62 172.368C405.897 172.549 406.094 172.787 406.212 173.08C406.334 173.368 406.396 173.675 406.396 174C406.396 174.384 406.324 174.728 406.18 175.032C406.036 175.336 405.814 175.576 405.516 175.752C405.222 175.928 404.857 176.016 404.42 176.016C403.86 176.016 403.406 175.872 403.06 175.584C402.713 175.296 402.502 174.912 402.428 174.432H403.14C403.209 174.736 403.356 174.973 403.58 175.144C403.804 175.315 404.086 175.4 404.428 175.4C404.849 175.4 405.166 175.275 405.38 175.024C405.593 174.768 405.7 174.432 405.7 174.016C405.7 173.6 405.593 173.28 405.38 173.056C405.166 172.827 404.852 172.712 404.436 172.712C404.153 172.712 403.905 172.781 403.692 172.92C403.484 173.053 403.332 173.237 403.236 173.472H402.548V170.208H406.028V170.848Z" fill="white"/>
<path d="M459.793 174.712V174.16L462.601 170.272H463.473V174.08H464.273V174.712H463.473V176H462.753V174.712H459.793ZM462.785 171.032L460.633 174.08H462.785V171.032ZM465 173.048C465 172.131 465.149 171.416 465.448 170.904C465.747 170.387 466.269 170.128 467.016 170.128C467.757 170.128 468.277 170.387 468.576 170.904C468.875 171.416 469.024 172.131 469.024 173.048C469.024 173.981 468.875 174.707 468.576 175.224C468.277 175.741 467.757 176 467.016 176C466.269 176 465.747 175.741 465.448 175.224C465.149 174.707 465 173.981 465 173.048ZM468.304 173.048C468.304 172.584 468.272 172.192 468.208 171.872C468.149 171.547 468.024 171.285 467.832 171.088C467.645 170.891 467.373 170.792 467.016 170.792C466.653 170.792 466.376 170.891 466.184 171.088C465.997 171.285 465.872 171.547 465.808 171.872C465.749 172.192 465.72 172.584 465.72 173.048C465.72 173.528 465.749 173.931 465.808 174.256C465.872 174.581 465.997 174.843 466.184 175.04C466.376 175.237 466.653 175.336 467.016 175.336C467.373 175.336 467.645 175.237 467.832 175.04C468.024 174.843 468.149 174.581 468.208 174.256C468.272 173.931 468.304 173.528 468.304 173.048Z" fill="white"/>
<path d="M522.793 174.712V174.16L525.601 170.272H526.473V174.08H527.273V174.712H526.473V176H525.753V174.712H522.793ZM525.785 171.032L523.633 174.08H525.785V171.032ZM531.688 170.848H528.88V172.672C529.003 172.501 529.184 172.363 529.424 172.256C529.664 172.144 529.923 172.088 530.2 172.088C530.643 172.088 531.003 172.181 531.28 172.368C531.557 172.549 531.755 172.787 531.872 173.08C531.995 173.368 532.056 173.675 532.056 174C532.056 174.384 531.984 174.728 531.84 175.032C531.696 175.336 531.475 175.576 531.176 175.752C530.883 175.928 530.517 176.016 530.08 176.016C529.52 176.016 529.067 175.872 528.72 175.584C528.373 175.296 528.163 174.912 528.088 174.432H528.8C528.869 174.736 529.016 174.973 529.24 175.144C529.464 175.315 529.747 175.4 530.088 175.4C530.509 175.4 530.827 175.275 531.04 175.024C531.253 174.768 531.36 174.432 531.36 174.016C531.36 173.6 531.253 173.28 531.04 173.056C530.827 172.827 530.512 172.712 530.096 172.712C529.813 172.712 529.565 172.781 529.352 172.92C529.144 173.053 528.992 173.237 528.896 173.472H528.208V170.208H531.688V170.848Z" fill="white"/>
<path d="M589.661 170.848H586.853V172.672C586.975 172.501 587.157 172.363 587.397 172.256C587.637 172.144 587.895 172.088 588.173 172.088C588.615 172.088 588.975 172.181 589.253 172.368C589.53 172.549 589.727 172.787 589.845 173.08C589.967 173.368 590.029 173.675 590.029 174C590.029 174.384 589.957 174.728 589.813 175.032C589.669 175.336 589.447 175.576 589.149 175.752C588.855 175.928 588.49 176.016 588.053 176.016C587.493 176.016 587.039 175.872 586.693 175.584C586.346 175.296 586.135 174.912 586.061 174.432H586.773C586.842 174.736 586.989 174.973 587.213 175.144C587.437 175.315 587.719 175.4 588.061 175.4C588.482 175.4 588.799 175.275 589.013 175.024C589.226 174.768 589.333 174.432 589.333 174.016C589.333 173.6 589.226 173.28 589.013 173.056C588.799 172.827 588.485 172.712 588.069 172.712C587.786 172.712 587.538 172.781 587.325 172.92C587.117 173.053 586.965 173.237 586.869 173.472H586.181V170.208H589.661V170.848ZM590.996 173.048C590.996 172.131 591.145 171.416 591.444 170.904C591.743 170.387 592.265 170.128 593.012 170.128C593.753 170.128 594.273 170.387 594.572 170.904C594.871 171.416 595.02 172.131 595.02 173.048C595.02 173.981 594.871 174.707 594.572 175.224C594.273 175.741 593.753 176 593.012 176C592.265 176 591.743 175.741 591.444 175.224C591.145 174.707 590.996 173.981 590.996 173.048ZM594.3 173.048C594.3 172.584 594.268 172.192 594.204 171.872C594.145 171.547 594.02 171.285 593.828 171.088C593.641 170.891 593.369 170.792 593.012 170.792C592.649 170.792 592.372 170.891 592.18 171.088C591.993 171.285 591.868 171.547 591.804 171.872C591.745 172.192 591.716 172.584 591.716 173.048C591.716 173.528 591.745 173.931 591.804 174.256C591.868 174.581 591.993 174.843 592.18 175.04C592.372 175.237 592.649 175.336 593.012 175.336C593.369 175.336 593.641 175.237 593.828 175.04C594.02 174.843 594.145 174.581 594.204 174.256C594.268 173.931 594.3 173.528 594.3 173.048Z" fill="white"/>
<path d="M652.661 170.848H649.853V172.672C649.975 172.501 650.157 172.363 650.397 172.256C650.637 172.144 650.895 172.088 651.173 172.088C651.615 172.088 651.975 172.181 652.253 172.368C652.53 172.549 652.727 172.787 652.845 173.08C652.967 173.368 653.029 173.675 653.029 174C653.029 174.384 652.957 174.728 652.813 175.032C652.669 175.336 652.447 175.576 652.149 175.752C651.855 175.928 651.49 176.016 651.053 176.016C650.493 176.016 650.039 175.872 649.693 175.584C649.346 175.296 649.135 174.912 649.061 174.432H649.773C649.842 174.736 649.989 174.973 650.213 175.144C650.437 175.315 650.719 175.4 651.061 175.4C651.482 175.4 651.799 175.275 652.013 175.024C652.226 174.768 652.333 174.432 652.333 174.016C652.333 173.6 652.226 173.28 652.013 173.056C651.799 172.827 651.485 172.712 651.069 172.712C650.786 172.712 650.538 172.781 650.325 172.92C650.117 173.053 649.965 173.237 649.869 173.472H649.181V170.208H652.661V170.848ZM657.684 170.848H654.876V172.672C654.999 172.501 655.18 172.363 655.42 172.256C655.66 172.144 655.919 172.088 656.196 172.088C656.639 172.088 656.999 172.181 657.276 172.368C657.553 172.549 657.751 172.787 657.868 173.08C657.991 173.368 658.052 173.675 658.052 174C658.052 174.384 657.98 174.728 657.836 175.032C657.692 175.336 657.471 175.576 657.172 175.752C656.879 175.928 656.513 176.016 656.076 176.016C655.516 176.016 655.063 175.872 654.716 175.584C654.369 175.296 654.159 174.912 654.084 174.432H654.796C654.865 174.736 655.012 174.973 655.236 175.144C655.46 175.315 655.743 175.4 656.084 175.4C656.505 175.4 656.823 175.275 657.036 175.024C657.249 174.768 657.356 174.432 657.356 174.016C657.356 173.6 657.249 173.28 657.036 173.056C656.823 172.827 656.508 172.712 656.092 172.712C655.809 172.712 655.561 172.781 655.348 172.92C655.14 173.053 654.988 173.237 654.892 173.472H654.204V170.208H657.684V170.848Z" fill="white"/>
<path d="M715.169 171.592C715.052 171 714.687 170.704 714.073 170.704C713.599 170.704 713.244 170.888 713.009 171.256C712.775 171.619 712.66 172.219 712.665 173.056C712.788 172.779 712.991 172.563 713.273 172.408C713.561 172.248 713.881 172.168 714.233 172.168C714.783 172.168 715.22 172.339 715.545 172.68C715.876 173.021 716.041 173.493 716.041 174.096C716.041 174.459 715.969 174.784 715.825 175.072C715.687 175.36 715.473 175.589 715.185 175.76C714.903 175.931 714.559 176.016 714.153 176.016C713.604 176.016 713.175 175.893 712.865 175.648C712.556 175.403 712.34 175.064 712.217 174.632C712.095 174.2 712.033 173.667 712.033 173.032C712.033 171.075 712.716 170.096 714.081 170.096C714.604 170.096 715.015 170.237 715.313 170.52C715.612 170.803 715.788 171.16 715.841 171.592H715.169ZM714.081 172.784C713.852 172.784 713.636 172.832 713.433 172.928C713.231 173.019 713.065 173.16 712.937 173.352C712.815 173.539 712.753 173.768 712.753 174.04C712.753 174.445 712.871 174.776 713.105 175.032C713.34 175.283 713.676 175.408 714.113 175.408C714.487 175.408 714.783 175.293 715.001 175.064C715.225 174.829 715.337 174.515 715.337 174.12C715.337 173.704 715.231 173.379 715.017 173.144C714.804 172.904 714.492 172.784 714.081 172.784ZM717.023 173.048C717.023 172.131 717.173 171.416 717.471 170.904C717.77 170.387 718.293 170.128 719.039 170.128C719.781 170.128 720.301 170.387 720.599 170.904C720.898 171.416 721.047 172.131 721.047 173.048C721.047 173.981 720.898 174.707 720.599 175.224C720.301 175.741 719.781 176 719.039 176C718.293 176 717.77 175.741 717.471 175.224C717.173 174.707 717.023 173.981 717.023 173.048ZM720.327 173.048C720.327 172.584 720.295 172.192 720.231 171.872C720.173 171.547 720.047 171.285 719.855 171.088C719.669 170.891 719.397 170.792 719.039 170.792C718.677 170.792 718.399 170.891 718.207 171.088C718.021 171.285 717.895 171.547 717.831 171.872C717.773 172.192 717.743 172.584 717.743 173.048C717.743 173.528 717.773 173.931 717.831 174.256C717.895 174.581 718.021 174.843 718.207 175.04C718.399 175.237 718.677 175.336 719.039 175.336C719.397 175.336 719.669 175.237 719.855 175.04C720.047 174.843 720.173 174.581 720.231 174.256C720.295 173.931 720.327 173.528 720.327 173.048Z" fill="white"/>
<path d="M778.169 171.592C778.052 171 777.687 170.704 777.073 170.704C776.599 170.704 776.244 170.888 776.009 171.256C775.775 171.619 775.66 172.219 775.665 173.056C775.788 172.779 775.991 172.563 776.273 172.408C776.561 172.248 776.881 172.168 777.233 172.168C777.783 172.168 778.22 172.339 778.545 172.68C778.876 173.021 779.041 173.493 779.041 174.096C779.041 174.459 778.969 174.784 778.825 175.072C778.687 175.36 778.473 175.589 778.185 175.76C777.903 175.931 777.559 176.016 777.153 176.016C776.604 176.016 776.175 175.893 775.865 175.648C775.556 175.403 775.34 175.064 775.217 174.632C775.095 174.2 775.033 173.667 775.033 173.032C775.033 171.075 775.716 170.096 777.081 170.096C777.604 170.096 778.015 170.237 778.313 170.52C778.612 170.803 778.788 171.16 778.841 171.592H778.169ZM777.081 172.784C776.852 172.784 776.636 172.832 776.433 172.928C776.231 173.019 776.065 173.16 775.937 173.352C775.815 173.539 775.753 173.768 775.753 174.04C775.753 174.445 775.871 174.776 776.105 175.032C776.34 175.283 776.676 175.408 777.113 175.408C777.487 175.408 777.783 175.293 778.001 175.064C778.225 174.829 778.337 174.515 778.337 174.12C778.337 173.704 778.231 173.379 778.017 173.144C777.804 172.904 777.492 172.784 777.081 172.784ZM783.711 170.848H780.903V172.672C781.026 172.501 781.207 172.363 781.447 172.256C781.687 172.144 781.946 172.088 782.223 172.088C782.666 172.088 783.026 172.181 783.303 172.368C783.581 172.549 783.778 172.787 783.895 173.08C784.018 173.368 784.079 173.675 784.079 174C784.079 174.384 784.007 174.728 783.863 175.032C783.719 175.336 783.498 175.576 783.199 175.752C782.906 175.928 782.541 176.016 782.103 176.016C781.543 176.016 781.09 175.872 780.743 175.584C780.397 175.296 780.186 174.912 780.111 174.432H780.823C780.893 174.736 781.039 174.973 781.263 175.144C781.487 175.315 781.77 175.4 782.111 175.4C782.533 175.4 782.85 175.275 783.063 175.024C783.277 174.768 783.383 174.432 783.383 174.016C783.383 173.6 783.277 173.28 783.063 173.056C782.85 172.827 782.535 172.712 782.119 172.712C781.837 172.712 781.589 172.781 781.375 172.92C781.167 173.053 781.015 173.237 780.919 173.472H780.231V170.208H783.711V170.848Z" fill="white"/>
<path d="M841.361 170.784L839.137 176H838.401L840.657 170.856H837.569V170.232H841.361V170.784ZM842.168 173.048C842.168 172.131 842.317 171.416 842.616 170.904C842.915 170.387 843.437 170.128 844.184 170.128C844.925 170.128 845.445 170.387 845.744 170.904C846.043 171.416 846.192 172.131 846.192 173.048C846.192 173.981 846.043 174.707 845.744 175.224C845.445 175.741 844.925 176 844.184 176C843.437 176 842.915 175.741 842.616 175.224C842.317 174.707 842.168 173.981 842.168 173.048ZM845.472 173.048C845.472 172.584 845.44 172.192 845.376 171.872C845.317 171.547 845.192 171.285 845 171.088C844.813 170.891 844.541 170.792 844.184 170.792C843.821 170.792 843.544 170.891 843.352 171.088C843.165 171.285 843.04 171.547 842.976 171.872C842.917 172.192 842.888 172.584 842.888 173.048C842.888 173.528 842.917 173.931 842.976 174.256C843.04 174.581 843.165 174.843 843.352 175.04C843.544 175.237 843.821 175.336 844.184 175.336C844.541 175.336 844.813 175.237 845 175.04C845.192 174.843 845.317 174.581 845.376 174.256C845.44 173.931 845.472 173.528 845.472 173.048Z" fill="white"/>
<path d="M903.361 170.784L901.137 176H900.401L902.657 170.856H899.569V170.232H903.361V170.784ZM907.856 170.848H905.048V172.672C905.171 172.501 905.352 172.363 905.592 172.256C905.832 172.144 906.091 172.088 906.368 172.088C906.811 172.088 907.171 172.181 907.448 172.368C907.725 172.549 907.923 172.787 908.04 173.08C908.163 173.368 908.224 173.675 908.224 174C908.224 174.384 908.152 174.728 908.008 175.032C907.864 175.336 907.643 175.576 907.344 175.752C907.051 175.928 906.685 176.016 906.248 176.016C905.688 176.016 905.235 175.872 904.888 175.584C904.541 175.296 904.331 174.912 904.256 174.432H904.968C905.037 174.736 905.184 174.973 905.408 175.144C905.632 175.315 905.915 175.4 906.256 175.4C906.677 175.4 906.995 175.275 907.208 175.024C907.421 174.768 907.528 174.432 907.528 174.016C907.528 173.6 907.421 173.28 907.208 173.056C906.995 172.827 906.68 172.712 906.264 172.712C905.981 172.712 905.733 172.781 905.52 172.92C905.312 173.053 905.16 173.237 905.064 173.472H904.376V170.208H907.856V170.848Z" fill="white"/>
<path d="M963.017 172.992C962.718 172.875 962.489 172.704 962.329 172.48C962.169 172.256 962.089 171.984 962.089 171.664C962.089 171.376 962.161 171.117 962.305 170.888C962.449 170.653 962.662 170.469 962.945 170.336C963.233 170.197 963.58 170.128 963.985 170.128C964.39 170.128 964.734 170.197 965.017 170.336C965.305 170.469 965.521 170.653 965.665 170.888C965.814 171.117 965.889 171.376 965.889 171.664C965.889 171.973 965.806 172.245 965.641 172.48C965.476 172.709 965.249 172.88 964.961 172.992C965.292 173.093 965.553 173.272 965.745 173.528C965.942 173.779 966.041 174.083 966.041 174.44C966.041 174.787 965.956 175.091 965.785 175.352C965.614 175.608 965.372 175.808 965.057 175.952C964.748 176.091 964.39 176.16 963.985 176.16C963.58 176.16 963.222 176.091 962.913 175.952C962.609 175.808 962.372 175.608 962.201 175.352C962.03 175.091 961.945 174.787 961.945 174.44C961.945 174.083 962.041 173.776 962.233 173.52C962.425 173.264 962.686 173.088 963.017 172.992ZM965.185 171.752C965.185 171.427 965.078 171.176 964.865 171C964.652 170.824 964.358 170.736 963.985 170.736C963.617 170.736 963.326 170.824 963.113 171C962.9 171.176 962.793 171.429 962.793 171.76C962.793 172.059 962.902 172.299 963.121 172.48C963.345 172.661 963.633 172.752 963.985 172.752C964.342 172.752 964.63 172.661 964.849 172.48C965.073 172.293 965.185 172.051 965.185 171.752ZM963.985 173.312C963.59 173.312 963.268 173.405 963.017 173.592C962.766 173.773 962.641 174.048 962.641 174.416C962.641 174.757 962.761 175.032 963.001 175.24C963.246 175.448 963.574 175.552 963.985 175.552C964.396 175.552 964.721 175.448 964.961 175.24C965.201 175.032 965.321 174.757 965.321 174.416C965.321 174.059 965.198 173.787 964.953 173.6C964.708 173.408 964.385 173.312 963.985 173.312ZM967.008 173.048C967.008 172.131 967.157 171.416 967.456 170.904C967.754 170.387 968.277 170.128 969.024 170.128C969.765 170.128 970.285 170.387 970.584 170.904C970.882 171.416 971.032 172.131 971.032 173.048C971.032 173.981 970.882 174.707 970.584 175.224C970.285 175.741 969.765 176 969.024 176C968.277 176 967.754 175.741 967.456 175.224C967.157 174.707 967.008 173.981 967.008 173.048ZM970.312 173.048C970.312 172.584 970.28 172.192 970.216 171.872C970.157 171.547 970.032 171.285 969.84 171.088C969.653 170.891 969.381 170.792 969.024 170.792C968.661 170.792 968.384 170.891 968.192 171.088C968.005 171.285 967.88 171.547 967.816 171.872C967.757 172.192 967.728 172.584 967.728 173.048C967.728 173.528 967.757 173.931 967.816 174.256C967.88 174.581 968.005 174.843 968.192 175.04C968.384 175.237 968.661 175.336 969.024 175.336C969.381 175.336 969.653 175.237 969.84 175.04C970.032 174.843 970.157 174.581 970.216 174.256C970.28 173.931 970.312 173.528 970.312 173.048Z" fill="white"/>
<path d="M7.61369 99.848H4.80569V101.672C4.92835 101.501 5.10969 101.363 5.34969 101.256C5.58969 101.144 5.84835 101.088 6.12569 101.088C6.56835 101.088 6.92835 101.181 7.20569 101.368C7.48302 101.549 7.68035 101.787 7.79769 102.08C7.92035 102.368 7.98169 102.675 7.98169 103C7.98169 103.384 7.90969 103.728 7.76569 104.032C7.62169 104.336 7.40035 104.576 7.10169 104.752C6.80835 104.928 6.44302 105.016 6.00569 105.016C5.44569 105.016 4.99235 104.872 4.64569 104.584C4.29902 104.296 4.08835 103.912 4.01369 103.432H4.72569C4.79502 103.736 4.94169 103.973 5.16569 104.144C5.38969 104.315 5.67235 104.4 6.01369 104.4C6.43502 104.4 6.75235 104.275 6.96569 104.024C7.17902 103.768 7.28569 103.432 7.28569 103.016C7.28569 102.6 7.17902 102.28 6.96569 102.056C6.75235 101.827 6.43769 101.712 6.02169 101.712C5.73902 101.712 5.49102 101.781 5.27769 101.92C5.06969 102.053 4.91769 102.237 4.82169 102.472H4.13369V99.208H7.61369V99.848ZM11.5171 105L9.79713 103.064V105H9.06913V99.08H9.79713V102.56L11.4851 100.616H12.5011L10.4371 102.8L12.5091 105H11.5171Z" fill="white"/>
<path d="M0.452438 51.88V51.216H1.95644V57H1.22044V51.88H0.452438ZM3.20694 54.048C3.20694 53.1307 3.35627 52.416 3.65494 51.904C3.9536 51.3867 4.47627 51.128 5.22294 51.128C5.96427 51.128 6.48427 51.3867 6.78294 51.904C7.0816 52.416 7.23094 53.1307 7.23094 54.048C7.23094 54.9813 7.0816 55.7067 6.78294 56.224C6.48427 56.7413 5.96427 57 5.22294 57C4.47627 57 3.9536 56.7413 3.65494 56.224C3.35627 55.7067 3.20694 54.9813 3.20694 54.048ZM6.51094 54.048C6.51094 53.584 6.47894 53.192 6.41494 52.872C6.35627 52.5467 6.23094 52.2853 6.03894 52.088C5.85227 51.8907 5.58027 51.792 5.22294 51.792C4.86027 51.792 4.58294 51.8907 4.39094 52.088C4.20427 52.2853 4.07894 52.5467 4.01494 52.872C3.95627 53.192 3.92694 53.584 3.92694 54.048C3.92694 54.528 3.95627 54.9307 4.01494 55.256C4.07894 55.5813 4.20427 55.8427 4.39094 56.04C4.58294 56.2373 4.86027 56.336 5.22294 56.336C5.58027 56.336 5.85227 56.2373 6.03894 56.04C6.23094 55.8427 6.35627 55.5813 6.41494 55.256C6.47894 54.9307 6.51094 54.528 6.51094 54.048ZM10.7984 57L9.07838 55.064V57H8.35038V51.08H9.07838V54.56L10.7664 52.616H11.7824L9.71838 54.8L11.7904 57H10.7984Z" fill="white"/>
<path d="M0.452438 3.88V3.216H1.95644V9H1.22044V3.88H0.452438ZM6.89494 3.848H4.08694V5.672C4.2096 5.50133 4.39094 5.36267 4.63094 5.256C4.87094 5.144 5.1296 5.088 5.40694 5.088C5.8496 5.088 6.2096 5.18133 6.48694 5.368C6.76427 5.54933 6.9616 5.78667 7.07894 6.08C7.2016 6.368 7.26294 6.67467 7.26294 7C7.26294 7.384 7.19094 7.728 7.04694 8.032C6.90294 8.336 6.6816 8.576 6.38294 8.752C6.0896 8.928 5.72427 9.016 5.28694 9.016C4.72694 9.016 4.2736 8.872 3.92694 8.584C3.58027 8.296 3.3696 7.912 3.29494 7.432H4.00694C4.07627 7.736 4.22294 7.97333 4.44694 8.144C4.67094 8.31467 4.9536 8.4 5.29494 8.4C5.71627 8.4 6.0336 8.27467 6.24694 8.024C6.46027 7.768 6.56694 7.432 6.56694 7.016C6.56694 6.6 6.46027 6.28 6.24694 6.056C6.0336 5.82667 5.71894 5.712 5.30294 5.712C5.02027 5.712 4.77227 5.78133 4.55894 5.92C4.35094 6.05333 4.19894 6.23733 4.10294 6.472H3.41494V3.208H6.89494V3.848ZM10.7984 9L9.07838 7.064V9H8.35038V3.08H9.07838V6.56L10.7664 4.616H11.7824L9.71838 6.8L11.7904 9H10.7984Z" fill="white"/>
<rect x="54" y="61" width="16" height="81" rx="8" fill="#7294FF"/>
<rect x="29" y="92" width="16" height="50" rx="8" fill="#7294FF"/>
<rect x="79" y="107" width="16" height="35" rx="8" fill="#7294FF"/>
<rect x="129" y="92" width="16" height="50" rx="8" fill="#7294FF"/>
<rect x="104" y="112" width="16" height="30" rx="8" fill="#7294FF"/>
<rect x="179" y="23" width="16" height="119" rx="8" fill="#7294FF"/>
<rect x="154" y="69" width="16" height="73" rx="8" fill="#7294FF"/>
<rect x="204" y="91" width="16" height="51" rx="8" fill="#7294FF"/>
<rect x="254" y="69" width="16" height="73" rx="8" fill="#7294FF"/>
<rect x="229" y="98" width="16" height="44" rx="8" fill="#7294FF"/>
<rect x="304" y="61" width="16" height="81" rx="8" fill="#7294FF"/>
<rect x="279" y="92" width="16" height="50" rx="8" fill="#7294FF"/>
<rect x="329" y="107" width="16" height="35" rx="8" fill="#7294FF"/>
<rect x="379" y="92" width="16" height="50" rx="8" fill="#7294FF"/>
<rect x="354" y="112" width="16" height="30" rx="8" fill="#7294FF"/>
<rect x="429" y="33" width="16" height="109" rx="8" fill="#7294FF"/>
<rect x="404" y="75" width="16" height="67" rx="8" fill="#7294FF"/>
<rect x="829" y="61" width="16" height="81" rx="8" fill="#7294FF"/>
<rect x="854" y="107" width="16" height="35" rx="8" fill="#7294FF"/>
<rect x="904" y="92" width="16" height="50" rx="8" fill="#7294FF"/>
<rect x="879" y="112" width="16" height="30" rx="8" fill="#7294FF"/>
<rect x="954" y="33" width="16" height="109" rx="8" fill="#7294FF"/>
<rect x="929" y="75" width="16" height="67" rx="8" fill="#7294FF"/>
<rect x="454" y="95" width="16" height="47" rx="8" fill="#7294FF"/>
<rect x="504" y="75" width="16" height="67" rx="8" fill="#7294FF"/>
<rect x="479" y="102" width="16" height="40" rx="8" fill="#7294FF"/>
<rect x="554" y="81" width="16" height="61" rx="8" fill="#7294FF"/>
<rect x="529" y="105" width="16" height="37" rx="8" fill="#7294FF"/>
<rect x="579" y="116" width="16" height="26" rx="8" fill="#7294FF"/>
<rect x="629" y="105" width="16" height="37" rx="8" fill="#7294FF"/>
<rect x="604" y="120" width="16" height="22" rx="8" fill="#7294FF"/>
<rect x="679" y="75" width="16" height="67" rx="8" fill="#7294FF"/>
<rect x="654" y="102" width="16" height="40" rx="8" fill="#7294FF"/>
<rect x="729" y="81" width="16" height="61" rx="8" fill="#7294FF"/>
<rect x="704" y="105" width="16" height="37" rx="8" fill="#7294FF"/>
<rect x="754" y="116" width="16" height="26" rx="8" fill="#7294FF"/>
<rect x="804" y="105" width="16" height="37" rx="8" fill="#7294FF"/>
<rect x="779" y="120" width="16" height="22" rx="8" fill="#7294FF"/>
</svg>
