<svg width="62" height="62" viewBox="0 0 62 62" fill="none" xmlns="http://www.w3.org/2000/svg">
<circle cx="31" cy="31" r="31" fill="#293368"/>
<path d="M19.9023 38H42.5023V39.5C42.5023 40.5609 42.0809 41.5783 41.3307 42.3284C40.5806 43.0786 39.5632 43.5 38.5023 43.5H23.9023C22.8415 43.5 21.8241 43.0786 21.0739 42.3284C20.3238 41.5783 19.9023 40.5609 19.9023 39.5V38Z" stroke="#7293FA" stroke-width="1.5" stroke-linecap="round" stroke-linejoin="round"/>
<path d="M39.8018 31.9H42.4018C42.8041 31.8866 43.205 31.9543 43.5806 32.099C43.9562 32.2437 44.2988 32.4626 44.5881 32.7425C44.8773 33.0224 45.1073 33.3577 45.2642 33.7284C45.4212 34.099 45.502 34.4975 45.5018 34.9C45.5018 35.7222 45.1752 36.5106 44.5938 37.092C44.0125 37.6734 43.224 38 42.4018 38H20.0018C19.5993 38.0002 19.2008 37.9194 18.8302 37.7625C18.4595 37.6055 18.1242 37.3755 17.8443 37.0862C17.5644 36.797 17.3455 36.4544 17.2008 36.0788C17.056 35.7032 16.9884 35.3023 17.0018 34.9C16.9878 34.5023 17.0559 34.1059 17.2017 33.7356C17.3475 33.3653 17.568 33.029 17.8494 32.7476C18.1308 32.4662 18.4671 32.2457 18.8374 32.0999C19.2077 31.9541 19.6041 31.886 20.0018 31.9H28.8018" stroke="#7293FA" stroke-width="1.5" stroke-linecap="round" stroke-linejoin="round"/>
<path d="M45.5026 29.8999C45.4951 30.4274 45.2795 30.9307 44.9027 31.2999C44.7273 31.4962 44.5111 31.6516 44.2692 31.7553C44.0273 31.859 43.7657 31.9083 43.5026 31.8999H38.3027L34.9027 35.7999L31.5026 31.8999H18.9027C18.6445 31.9003 18.389 31.848 18.1517 31.7463C17.9144 31.6447 17.7003 31.4957 17.5225 31.3085C17.3447 31.1214 17.2069 30.8999 17.1175 30.6578C17.0282 30.4156 16.989 30.1577 17.0026 29.8999C16.989 29.6421 17.0282 29.3842 17.1175 29.1421C17.2069 28.8999 17.3447 28.6785 17.5225 28.4913C17.7003 28.3041 17.9144 28.1552 18.1517 28.0535C18.389 27.9518 18.6445 27.8995 18.9027 27.8999H43.5026C44.0331 27.8999 44.5418 28.1106 44.9169 28.4857C45.292 28.8608 45.5026 29.3695 45.5026 29.8999Z" stroke="#7293FA" stroke-width="1.5" stroke-linecap="round" stroke-linejoin="round"/>
<path d="M28.5023 19H34.0023C36.2832 19 38.4706 19.9061 40.0834 21.5189C41.6962 23.1317 42.6024 25.3191 42.6024 27.6H19.9023C19.9023 25.3191 20.8084 23.1317 22.4212 21.5189C24.034 19.9061 26.2215 19 28.5023 19Z" stroke="#7293FA" stroke-width="1.5" stroke-linecap="round" stroke-linejoin="round"/>
<path d="M25.6016 23.5L26.8016 24.8" stroke="#7293FA" stroke-width="1.5" stroke-linecap="round" stroke-linejoin="round"/>
<path d="M36.4023 23L37.7023 24.4" stroke="#7293FA" stroke-width="1.5" stroke-linecap="round" stroke-linejoin="round"/>
<path d="M30.4023 23.6001L31.8023 22.3" stroke="#7293FA" stroke-width="1.5" stroke-linecap="round" stroke-linejoin="round"/>
</svg>
