<svg width="90" height="90" viewBox="0 0 90 90" fill="none" xmlns="http://www.w3.org/2000/svg">
<mask id="path-1-inside-1_820_12" fill="white">
<path d="M90 45C90 69.8528 69.8528 90 45 90C20.1472 90 0 69.8528 0 45C0 20.1472 20.1472 0 45 0C69.8528 0 90 20.1472 90 45ZM11.6004 45C11.6004 63.4461 26.5539 78.3996 45 78.3996C63.4461 78.3996 78.3996 63.4461 78.3996 45C78.3996 26.5539 63.4461 11.6004 45 11.6004C26.5539 11.6004 11.6004 26.5539 11.6004 45Z"/>
</mask>
<path d="M90 45C90 69.8528 69.8528 90 45 90C20.1472 90 0 69.8528 0 45C0 20.1472 20.1472 0 45 0C69.8528 0 90 20.1472 90 45ZM11.6004 45C11.6004 63.4461 26.5539 78.3996 45 78.3996C63.4461 78.3996 78.3996 63.4461 78.3996 45C78.3996 26.5539 63.4461 11.6004 45 11.6004C26.5539 11.6004 11.6004 26.5539 11.6004 45Z" stroke="#29326B" stroke-width="28" mask="url(#path-1-inside-1_820_12)"/>
<mask id="path-2-inside-2_820_12" fill="white">
<path d="M6.6388 53.0649C3.50396 53.7239 1.46146 56.8178 2.51799 59.8419C4.82559 66.4469 8.65145 72.4496 13.7194 77.35C20.1831 83.6 28.3708 87.7705 37.2269 89.3236C46.083 90.8767 55.2012 89.7412 63.4059 86.0636C71.6106 82.386 78.5256 76.335 83.259 68.6906C87.9925 61.0463 90.3276 52.1592 89.963 43.1754C89.5984 34.1916 86.551 25.523 81.2137 18.2873C75.8764 11.0516 68.4939 5.58073 60.0182 2.58003C53.3727 0.227279 46.294 -0.5223 39.3528 0.355712C36.1748 0.757711 34.3155 3.96504 35.1226 7.06505V7.06505C35.9298 10.1651 39.1029 11.9694 42.2957 11.7101C46.9669 11.3306 51.6881 11.9369 56.1467 13.5154C62.4375 15.7425 67.9168 19.8031 71.8783 25.1735C75.8397 30.5439 78.1015 36.9779 78.3721 43.6458C78.6427 50.3137 76.9096 56.9098 73.3964 62.5835C69.8831 68.2572 64.7507 72.7484 58.6611 75.478C52.5715 78.2075 45.8038 79.0503 39.2307 77.8975C32.6576 76.7448 26.5806 73.6494 21.7831 69.0106C18.383 65.7228 15.7361 61.7666 13.9939 57.4159C12.8031 54.4421 9.77364 52.4058 6.6388 53.0649V53.0649Z"/>
</mask>
<path d="M6.6388 53.0649C3.50396 53.7239 1.46146 56.8178 2.51799 59.8419C4.82559 66.4469 8.65145 72.4496 13.7194 77.35C20.1831 83.6 28.3708 87.7705 37.2269 89.3236C46.083 90.8767 55.2012 89.7412 63.4059 86.0636C71.6106 82.386 78.5256 76.335 83.259 68.6906C87.9925 61.0463 90.3276 52.1592 89.963 43.1754C89.5984 34.1916 86.551 25.523 81.2137 18.2873C75.8764 11.0516 68.4939 5.58073 60.0182 2.58003C53.3727 0.227279 46.294 -0.5223 39.3528 0.355712C36.1748 0.757711 34.3155 3.96504 35.1226 7.06505V7.06505C35.9298 10.1651 39.1029 11.9694 42.2957 11.7101C46.9669 11.3306 51.6881 11.9369 56.1467 13.5154C62.4375 15.7425 67.9168 19.8031 71.8783 25.1735C75.8397 30.5439 78.1015 36.9779 78.3721 43.6458C78.6427 50.3137 76.9096 56.9098 73.3964 62.5835C69.8831 68.2572 64.7507 72.7484 58.6611 75.478C52.5715 78.2075 45.8038 79.0503 39.2307 77.8975C32.6576 76.7448 26.5806 73.6494 21.7831 69.0106C18.383 65.7228 15.7361 61.7666 13.9939 57.4159C12.8031 54.4421 9.77364 52.4058 6.6388 53.0649V53.0649Z" stroke="#7294FD" stroke-width="28" stroke-linejoin="round" mask="url(#path-2-inside-2_820_12)"/>
<path d="M36.176 31.368L32.16 41H29.36L33.424 31.672H28.448V29.336H36.176V31.368ZM37.2825 35C37.2825 33.1653 37.6345 31.72 38.3385 30.664C39.0532 29.608 40.1998 29.08 41.7785 29.08C43.3572 29.08 44.4985 29.608 45.2025 30.664C45.9172 31.72 46.2745 33.1653 46.2745 35C46.2745 36.856 45.9172 38.312 45.2025 39.368C44.4985 40.424 43.3572 40.952 41.7785 40.952C40.1998 40.952 39.0532 40.424 38.3385 39.368C37.6345 38.312 37.2825 36.856 37.2825 35ZM43.5865 35C43.5865 33.9227 43.4692 33.096 43.2345 32.52C42.9998 31.9333 42.5145 31.64 41.7785 31.64C41.0425 31.64 40.5572 31.9333 40.3225 32.52C40.0878 33.096 39.9705 33.9227 39.9705 35C39.9705 35.7253 40.0132 36.328 40.0985 36.808C40.1838 37.2773 40.3545 37.6613 40.6105 37.96C40.8772 38.248 41.2665 38.392 41.7785 38.392C42.2905 38.392 42.6745 38.248 42.9305 37.96C43.1972 37.6613 43.3732 37.2773 43.4585 36.808C43.5438 36.328 43.5865 35.7253 43.5865 35ZM47.496 32.264C47.496 31.4 47.7413 30.7333 48.232 30.264C48.7333 29.7947 49.3787 29.56 50.168 29.56C50.9573 29.56 51.5973 29.7947 52.088 30.264C52.5787 30.7333 52.824 31.4 52.824 32.264C52.824 33.128 52.5787 33.7947 52.088 34.264C51.5973 34.7333 50.9573 34.968 50.168 34.968C49.3787 34.968 48.7333 34.7333 48.232 34.264C47.7413 33.7947 47.496 33.128 47.496 32.264ZM58.36 29.736L52.2 41H49.56L55.72 29.736H58.36ZM50.152 31.16C49.64 31.16 49.384 31.528 49.384 32.264C49.384 32.9893 49.64 33.352 50.152 33.352C50.3973 33.352 50.5893 33.2613 50.728 33.08C50.8667 32.8987 50.936 32.6267 50.936 32.264C50.936 31.528 50.6747 31.16 50.152 31.16ZM55.112 38.472C55.112 37.608 55.3573 36.9413 55.848 36.472C56.3387 36.0027 56.9787 35.768 57.768 35.768C58.5573 35.768 59.1973 36.0027 59.688 36.472C60.1787 36.9413 60.424 37.608 60.424 38.472C60.424 39.336 60.1787 40.0027 59.688 40.472C59.1973 40.9413 58.5573 41.176 57.768 41.176C56.9787 41.176 56.3387 40.9413 55.848 40.472C55.3573 40.0027 55.112 39.336 55.112 38.472ZM57.752 37.368C57.5067 37.368 57.3147 37.4587 57.176 37.64C57.048 37.8213 56.984 38.0987 56.984 38.472C56.984 39.1973 57.24 39.56 57.752 39.56C57.9973 39.56 58.1893 39.4693 58.328 39.288C58.4667 39.1067 58.536 38.8347 58.536 38.472C58.536 38.1093 58.4667 37.8373 58.328 37.656C58.1893 37.464 57.9973 37.368 57.752 37.368Z" fill="white"/>
<path d="M41.7487 52.03C41.6327 51.786 41.4647 51.598 41.2447 51.466C41.0247 51.33 40.7687 51.262 40.4767 51.262C40.1847 51.262 39.9207 51.33 39.6847 51.466C39.4527 51.598 39.2687 51.79 39.1327 52.042C39.0007 52.29 38.9347 52.578 38.9347 52.906C38.9347 53.234 39.0007 53.522 39.1327 53.77C39.2687 54.018 39.4527 54.21 39.6847 54.346C39.9207 54.478 40.1847 54.544 40.4767 54.544C40.8847 54.544 41.2207 54.422 41.4847 54.178C41.7487 53.934 41.9027 53.604 41.9467 53.188H40.2787V52.744H42.5287V53.164C42.4967 53.508 42.3887 53.824 42.2047 54.112C42.0207 54.396 41.7787 54.622 41.4787 54.79C41.1787 54.954 40.8447 55.036 40.4767 55.036C40.0887 55.036 39.7347 54.946 39.4147 54.766C39.0947 54.582 38.8407 54.328 38.6527 54.004C38.4687 53.68 38.3767 53.314 38.3767 52.906C38.3767 52.498 38.4687 52.132 38.6527 51.808C38.8407 51.48 39.0947 51.226 39.4147 51.046C39.7347 50.862 40.0887 50.77 40.4767 50.77C40.9207 50.77 41.3127 50.88 41.6527 51.1C41.9967 51.32 42.2467 51.63 42.4027 52.03H41.7487ZM44.6846 55.054C44.3766 55.054 44.0966 54.984 43.8446 54.844C43.5966 54.704 43.4006 54.506 43.2566 54.25C43.1166 53.99 43.0466 53.69 43.0466 53.35C43.0466 53.014 43.1186 52.718 43.2626 52.462C43.4106 52.202 43.6106 52.004 43.8626 51.868C44.1146 51.728 44.3966 51.658 44.7086 51.658C45.0206 51.658 45.3026 51.728 45.5546 51.868C45.8066 52.004 46.0046 52.2 46.1486 52.456C46.2966 52.712 46.3706 53.01 46.3706 53.35C46.3706 53.69 46.2946 53.99 46.1426 54.25C45.9946 54.506 45.7926 54.704 45.5366 54.844C45.2806 54.984 44.9966 55.054 44.6846 55.054ZM44.6846 54.574C44.8806 54.574 45.0646 54.528 45.2366 54.436C45.4086 54.344 45.5466 54.206 45.6506 54.022C45.7586 53.838 45.8126 53.614 45.8126 53.35C45.8126 53.086 45.7606 52.862 45.6566 52.678C45.5526 52.494 45.4166 52.358 45.2486 52.27C45.0806 52.178 44.8986 52.132 44.7026 52.132C44.5026 52.132 44.3186 52.178 44.1506 52.27C43.9866 52.358 43.8546 52.494 43.7546 52.678C43.6546 52.862 43.6046 53.086 43.6046 53.35C43.6046 53.618 43.6526 53.844 43.7486 54.028C43.8486 54.212 43.9806 54.35 44.1446 54.442C44.3086 54.53 44.4886 54.574 44.6846 54.574ZM46.8845 53.344C46.8845 53.008 46.9525 52.714 47.0885 52.462C47.2245 52.206 47.4105 52.008 47.6465 51.868C47.8865 51.728 48.1525 51.658 48.4445 51.658C48.7325 51.658 48.9825 51.72 49.1945 51.844C49.4065 51.968 49.5645 52.124 49.6685 52.312V51.712H50.2205V55H49.6685V54.388C49.5605 54.58 49.3985 54.74 49.1825 54.868C48.9705 54.992 48.7225 55.054 48.4385 55.054C48.1465 55.054 47.8825 54.982 47.6465 54.838C47.4105 54.694 47.2245 54.492 47.0885 54.232C46.9525 53.972 46.8845 53.676 46.8845 53.344ZM49.6685 53.35C49.6685 53.102 49.6185 52.886 49.5185 52.702C49.4185 52.518 49.2825 52.378 49.1105 52.282C48.9425 52.182 48.7565 52.132 48.5525 52.132C48.3485 52.132 48.1625 52.18 47.9945 52.276C47.8265 52.372 47.6925 52.512 47.5925 52.696C47.4925 52.88 47.4425 53.096 47.4425 53.344C47.4425 53.596 47.4925 53.816 47.5925 54.004C47.6925 54.188 47.8265 54.33 47.9945 54.43C48.1625 54.526 48.3485 54.574 48.5525 54.574C48.7565 54.574 48.9425 54.526 49.1105 54.43C49.2825 54.33 49.4185 54.188 49.5185 54.004C49.6185 53.816 49.6685 53.598 49.6685 53.35ZM51.6892 50.56V55H51.1432V50.56H51.6892ZM28.4626 61.906C28.4626 61.498 28.5546 61.132 28.7386 60.808C28.9226 60.48 29.1726 60.224 29.4886 60.04C29.8086 59.856 30.1626 59.764 30.5506 59.764C31.0066 59.764 31.4046 59.874 31.7446 60.094C32.0846 60.314 32.3326 60.626 32.4886 61.03H31.8346C31.7186 60.778 31.5506 60.584 31.3306 60.448C31.1146 60.312 30.8546 60.244 30.5506 60.244C30.2586 60.244 29.9966 60.312 29.7646 60.448C29.5326 60.584 29.3506 60.778 29.2186 61.03C29.0866 61.278 29.0206 61.57 29.0206 61.906C29.0206 62.238 29.0866 62.53 29.2186 62.782C29.3506 63.03 29.5326 63.222 29.7646 63.358C29.9966 63.494 30.2586 63.562 30.5506 63.562C30.8546 63.562 31.1146 63.496 31.3306 63.364C31.5506 63.228 31.7186 63.034 31.8346 62.782H32.4886C32.3326 63.182 32.0846 63.492 31.7446 63.712C31.4046 63.928 31.0066 64.036 30.5506 64.036C30.1626 64.036 29.8086 63.946 29.4886 63.766C29.1726 63.582 28.9226 63.328 28.7386 63.004C28.5546 62.68 28.4626 62.314 28.4626 61.906ZM34.7354 64.054C34.4274 64.054 34.1474 63.984 33.8954 63.844C33.6474 63.704 33.4514 63.506 33.3074 63.25C33.1674 62.99 33.0974 62.69 33.0974 62.35C33.0974 62.014 33.1694 61.718 33.3134 61.462C33.4614 61.202 33.6614 61.004 33.9134 60.868C34.1654 60.728 34.4474 60.658 34.7594 60.658C35.0714 60.658 35.3534 60.728 35.6054 60.868C35.8574 61.004 36.0554 61.2 36.1994 61.456C36.3474 61.712 36.4214 62.01 36.4214 62.35C36.4214 62.69 36.3454 62.99 36.1934 63.25C36.0454 63.506 35.8434 63.704 35.5874 63.844C35.3314 63.984 35.0474 64.054 34.7354 64.054ZM34.7354 63.574C34.9314 63.574 35.1154 63.528 35.2874 63.436C35.4594 63.344 35.5974 63.206 35.7014 63.022C35.8094 62.838 35.8634 62.614 35.8634 62.35C35.8634 62.086 35.8114 61.862 35.7074 61.678C35.6034 61.494 35.4674 61.358 35.2994 61.27C35.1314 61.178 34.9494 61.132 34.7534 61.132C34.5534 61.132 34.3694 61.178 34.2014 61.27C34.0374 61.358 33.9054 61.494 33.8054 61.678C33.7054 61.862 33.6554 62.086 33.6554 62.35C33.6554 62.618 33.7034 62.844 33.7994 63.028C33.8994 63.212 34.0314 63.35 34.1954 63.442C34.3594 63.53 34.5394 63.574 34.7354 63.574ZM41.0933 60.652C41.3493 60.652 41.5773 60.706 41.7773 60.814C41.9773 60.918 42.1353 61.076 42.2513 61.288C42.3673 61.5 42.4253 61.758 42.4253 62.062V64H41.8853V62.14C41.8853 61.812 41.8033 61.562 41.6393 61.39C41.4793 61.214 41.2613 61.126 40.9853 61.126C40.7013 61.126 40.4753 61.218 40.3073 61.402C40.1393 61.582 40.0553 61.844 40.0553 62.188V64H39.5153V62.14C39.5153 61.812 39.4333 61.562 39.2693 61.39C39.1093 61.214 38.8913 61.126 38.6153 61.126C38.3313 61.126 38.1053 61.218 37.9373 61.402C37.7693 61.582 37.6853 61.844 37.6853 62.188V64H37.1393V60.712H37.6853V61.186C37.7933 61.014 37.9373 60.882 38.1173 60.79C38.3013 60.698 38.5033 60.652 38.7233 60.652C38.9993 60.652 39.2433 60.714 39.4553 60.838C39.6673 60.962 39.8253 61.144 39.9293 61.384C40.0213 61.152 40.1733 60.972 40.3853 60.844C40.5973 60.716 40.8333 60.652 41.0933 60.652ZM43.8669 61.318C43.9749 61.13 44.1349 60.974 44.3469 60.85C44.5629 60.722 44.8129 60.658 45.0969 60.658C45.3889 60.658 45.6529 60.728 45.8889 60.868C46.1289 61.008 46.3169 61.206 46.4529 61.462C46.5889 61.714 46.6569 62.008 46.6569 62.344C46.6569 62.676 46.5889 62.972 46.4529 63.232C46.3169 63.492 46.1289 63.694 45.8889 63.838C45.6529 63.982 45.3889 64.054 45.0969 64.054C44.8169 64.054 44.5689 63.992 44.3529 63.868C44.1409 63.74 43.9789 63.582 43.8669 63.394V65.56H43.3209V60.712H43.8669V61.318ZM46.0989 62.344C46.0989 62.096 46.0489 61.88 45.9489 61.696C45.8489 61.512 45.7129 61.372 45.5409 61.276C45.3729 61.18 45.1869 61.132 44.9829 61.132C44.7829 61.132 44.5969 61.182 44.4249 61.282C44.2569 61.378 44.1209 61.52 44.0169 61.708C43.9169 61.892 43.8669 62.106 43.8669 62.35C43.8669 62.598 43.9169 62.816 44.0169 63.004C44.1209 63.188 44.2569 63.33 44.4249 63.43C44.5969 63.526 44.7829 63.574 44.9829 63.574C45.1869 63.574 45.3729 63.526 45.5409 63.43C45.7129 63.33 45.8489 63.188 45.9489 63.004C46.0489 62.816 46.0989 62.596 46.0989 62.344ZM47.9216 59.56V64H47.3756V59.56H47.9216ZM51.8522 62.23C51.8522 62.334 51.8462 62.444 51.8342 62.56H49.2062C49.2262 62.884 49.3362 63.138 49.5362 63.322C49.7402 63.502 49.9862 63.592 50.2742 63.592C50.5102 63.592 50.7062 63.538 50.8622 63.43C51.0222 63.318 51.1342 63.17 51.1982 62.986H51.7862C51.6982 63.302 51.5222 63.56 51.2582 63.76C50.9942 63.956 50.6662 64.054 50.2742 64.054C49.9622 64.054 49.6822 63.984 49.4342 63.844C49.1902 63.704 48.9982 63.506 48.8582 63.25C48.7182 62.99 48.6482 62.69 48.6482 62.35C48.6482 62.01 48.7162 61.712 48.8522 61.456C48.9882 61.2 49.1782 61.004 49.4222 60.868C49.6702 60.728 49.9542 60.658 50.2742 60.658C50.5862 60.658 50.8622 60.726 51.1022 60.862C51.3422 60.998 51.5262 61.186 51.6542 61.426C51.7862 61.662 51.8522 61.93 51.8522 62.23ZM51.2882 62.116C51.2882 61.908 51.2422 61.73 51.1502 61.582C51.0582 61.43 50.9322 61.316 50.7722 61.24C50.6162 61.16 50.4422 61.12 50.2502 61.12C49.9742 61.12 49.7382 61.208 49.5422 61.384C49.3502 61.56 49.2402 61.804 49.2122 62.116H51.2882ZM53.2389 61.162V63.1C53.2389 63.26 53.2729 63.374 53.3409 63.442C53.4089 63.506 53.5269 63.538 53.6949 63.538H54.0969V64H53.6049C53.3009 64 53.0729 63.93 52.9209 63.79C52.7689 63.65 52.6929 63.42 52.6929 63.1V61.162H52.2669V60.712H52.6929V59.884H53.2389V60.712H54.0969V61.162H53.2389ZM57.7584 62.23C57.7584 62.334 57.7524 62.444 57.7404 62.56H55.1124C55.1324 62.884 55.2424 63.138 55.4424 63.322C55.6464 63.502 55.8924 63.592 56.1804 63.592C56.4164 63.592 56.6124 63.538 56.7684 63.43C56.9284 63.318 57.0404 63.17 57.1044 62.986H57.6924C57.6044 63.302 57.4284 63.56 57.1644 63.76C56.9004 63.956 56.5724 64.054 56.1804 64.054C55.8684 64.054 55.5884 63.984 55.3404 63.844C55.0964 63.704 54.9044 63.506 54.7644 63.25C54.6244 62.99 54.5544 62.69 54.5544 62.35C54.5544 62.01 54.6224 61.712 54.7584 61.456C54.8944 61.2 55.0844 61.004 55.3284 60.868C55.5764 60.728 55.8604 60.658 56.1804 60.658C56.4924 60.658 56.7684 60.726 57.0084 60.862C57.2484 60.998 57.4324 61.186 57.5604 61.426C57.6924 61.662 57.7584 61.93 57.7584 62.23ZM57.1944 62.116C57.1944 61.908 57.1484 61.73 57.0564 61.582C56.9644 61.43 56.8384 61.316 56.6784 61.24C56.5224 61.16 56.3484 61.12 56.1564 61.12C55.8804 61.12 55.6444 61.208 55.4484 61.384C55.2564 61.56 55.1464 61.804 55.1184 62.116H57.1944ZM58.2751 62.344C58.2751 62.008 58.3431 61.714 58.4791 61.462C58.6151 61.206 58.8011 61.008 59.0371 60.868C59.2771 60.728 59.5451 60.658 59.8411 60.658C60.0971 60.658 60.3351 60.718 60.5551 60.838C60.7751 60.954 60.9431 61.108 61.0591 61.3V59.56H61.6111V64H61.0591V63.382C60.9511 63.578 60.7911 63.74 60.5791 63.868C60.3671 63.992 60.1191 64.054 59.8351 64.054C59.5431 64.054 59.2771 63.982 59.0371 63.838C58.8011 63.694 58.6151 63.492 58.4791 63.232C58.3431 62.972 58.2751 62.676 58.2751 62.344ZM61.0591 62.35C61.0591 62.102 61.0091 61.886 60.9091 61.702C60.8091 61.518 60.6731 61.378 60.5011 61.282C60.3331 61.182 60.1471 61.132 59.9431 61.132C59.7391 61.132 59.5531 61.18 59.3851 61.276C59.2171 61.372 59.0831 61.512 58.9831 61.696C58.8831 61.88 58.8331 62.096 58.8331 62.344C58.8331 62.596 58.8831 62.816 58.9831 63.004C59.0831 63.188 59.2171 63.33 59.3851 63.43C59.5531 63.526 59.7391 63.574 59.9431 63.574C60.1471 63.574 60.3331 63.526 60.5011 63.43C60.6731 63.33 60.8091 63.188 60.9091 63.004C61.0091 62.816 61.0591 62.598 61.0591 62.35Z" fill="white"/>
</svg>
