<svg width="62" height="62" viewBox="0 0 62 62" fill="none" xmlns="http://www.w3.org/2000/svg">
<circle cx="31" cy="31" r="31" fill="#5F3237"/>
<path d="M33.1875 30.8438C33.1875 31.3327 32.9932 31.8017 32.6475 32.1475C32.3017 32.4932 31.8327 32.6875 31.3438 32.6875C30.8548 32.6875 30.3858 32.4932 30.04 32.1475C29.6943 31.8017 29.5 31.3327 29.5 30.8438C29.5 30.3548 29.6943 29.8858 30.04 29.54C30.3858 29.1943 30.8548 29 31.3438 29C31.8327 29 32.3017 29.1943 32.6475 29.54C32.9932 29.8858 33.1875 30.3548 33.1875 30.8438Z" fill="#FA6A1F" stroke="#FA6A1F"/>
<path d="M22.7937 39.7063C25.1028 42.0153 28.2345 43.3125 31.5 43.3125C34.7655 43.3125 37.8972 42.0153 40.2063 39.7063C42.5153 37.3972 43.8125 34.2655 43.8125 31C43.8125 27.7345 42.5153 24.6028 40.2063 22.2937C37.8972 19.9847 34.7655 18.6875 31.5 18.6875C28.2345 18.6875 25.1028 19.9847 22.7937 22.2937C20.4847 24.6028 19.1875 27.7345 19.1875 31C19.1875 34.2655 20.4847 37.3972 22.7937 39.7063ZM40.6924 40.1924C38.2544 42.6304 34.9478 44 31.5 44C28.0522 44 24.7456 42.6304 22.3076 40.1924C19.8696 37.7544 18.5 34.4478 18.5 31C18.5 27.5522 19.8696 24.2456 22.3076 21.8076C24.7456 19.3696 28.0522 18 31.5 18C34.9478 18 38.2544 19.3696 40.6924 21.8076C43.1304 24.2456 44.5 27.5522 44.5 31C44.5 34.4478 43.1304 37.7544 40.6924 40.1924Z" fill="#FA6A1F" stroke="#FA6A1F"/>
<path d="M16 30.5H21" stroke="#FA6A1F" stroke-width="2" stroke-linecap="round"/>
<path d="M42 30.5H47" stroke="#FA6A1F" stroke-width="2" stroke-linecap="round"/>
<path d="M32 20V15" stroke="#FA6A1F" stroke-width="2" stroke-linecap="round"/>
<path d="M32 46.5V41.5" stroke="#FA6A1F" stroke-width="2" stroke-linecap="round"/>
</svg>
