<svg width="62" height="62" viewBox="0 0 62 62" fill="none" xmlns="http://www.w3.org/2000/svg">
<circle cx="31" cy="31" r="31" fill="#214A60"/>
<path d="M17 40.3379H44" stroke="#25A0DC" stroke-width="1.5" stroke-linecap="round" stroke-linejoin="round"/>
<path d="M18.5664 37.0206C19.0622 34.1965 20.5323 31.6357 22.7211 29.7836C24.9099 27.9316 27.6788 26.9055 30.5459 26.884C33.4072 26.8907 36.1732 27.9136 38.3504 29.7701C40.5276 31.6267 41.9746 34.1962 42.4333 37.0206" stroke="#25A0DC" stroke-width="1.5" stroke-linecap="round" stroke-linejoin="round"/>
<path d="M30.5443 26.7918C31.8676 26.7918 32.9402 25.7191 32.9402 24.3959C32.9402 23.0727 31.8676 22 30.5443 22C29.2211 22 28.1484 23.0727 28.1484 24.3959C28.1484 25.7191 29.2211 26.7918 30.5443 26.7918Z" stroke="#25A0DC" stroke-width="1.5" stroke-linecap="round" stroke-linejoin="round"/>
</svg>
