<svg width="42" height="41" viewBox="0 0 42 41" fill="none" xmlns="http://www.w3.org/2000/svg">
<rect x="0.046875" width="41" height="41" rx="8" fill="#293368"/>
<rect x="11.5938" y="16.334" width="14.668" height="10.7009" fill="#D9D9D9"/>
<path d="M15.7289 7.16187C15.7816 7.07334 15.8165 6.97524 15.8316 6.87315C15.8466 6.77106 15.8415 6.667 15.8165 6.5669C15.7916 6.4668 15.7473 6.37262 15.6861 6.28974C15.625 6.20687 15.5482 6.13692 15.4602 6.08388C15.3721 6.03085 15.2746 5.99577 15.1731 5.98065C15.0716 5.96553 14.9681 5.97066 14.8686 5.99576C14.769 6.02086 14.6754 6.06543 14.593 6.12692C14.5106 6.18842 14.441 6.26564 14.3883 6.35416L9.92891 13.8294H7.24609C7.03889 13.8294 6.84018 13.9122 6.69367 14.0595C6.54715 14.2069 6.46484 14.4067 6.46484 14.6151V16.1865C6.46484 16.3949 6.54715 16.5948 6.69367 16.7421C6.84018 16.8895 7.03889 16.9722 7.24609 16.9722H8.21953L11.1008 27.1173C11.1709 27.3641 11.3191 27.5811 11.523 27.7354C11.7269 27.8897 11.9753 27.9728 12.2305 27.9722H25.7023C25.9572 27.9725 26.2053 27.8892 26.4089 27.7349C26.6124 27.5806 26.7605 27.3638 26.8305 27.1173L29.7102 16.9722H30.6836C30.8908 16.9722 31.0895 16.8895 31.236 16.7421C31.3825 16.5948 31.4648 16.3949 31.4648 16.1865V14.6151C31.4648 14.4067 31.3825 14.2069 31.236 14.0595C31.0895 13.9122 30.8908 13.8294 30.6836 13.8294H28.0008L23.543 6.35416C23.4902 6.26564 23.4207 6.18842 23.3383 6.12692C23.2559 6.06543 23.1622 6.02086 23.0627 5.99576C22.9632 5.97066 22.8597 5.96553 22.7582 5.98065C22.6567 5.99577 22.5591 6.03085 22.4711 6.08388C22.3831 6.13692 22.3063 6.20687 22.2451 6.28974C22.184 6.37262 22.1397 6.4668 22.1147 6.5669C22.0898 6.667 22.0847 6.77106 22.0997 6.87315C22.1147 6.97524 22.1496 7.07334 22.2023 7.16187L26.1789 13.8294H11.7508L15.7289 7.16187ZM12.7148 20.1151C12.7148 19.6983 12.8795 19.2986 13.1725 19.0039C13.4655 18.7092 13.8629 18.5437 14.2773 18.5437C14.6917 18.5437 15.0892 18.7092 15.3822 19.0039C15.6752 19.2986 15.8398 19.6983 15.8398 20.1151V23.2579C15.8398 23.6747 15.6752 24.0744 15.3822 24.3691C15.0892 24.6638 14.6917 24.8293 14.2773 24.8293C13.8629 24.8293 13.4655 24.6638 13.1725 24.3691C12.8795 24.0744 12.7148 23.6747 12.7148 23.2579V20.1151ZM17.4023 20.1151C17.4023 19.6983 17.567 19.2986 17.86 19.0039C18.153 18.7092 18.5504 18.5437 18.9648 18.5437C19.3792 18.5437 19.7767 18.7092 20.0697 19.0039C20.3627 19.2986 20.5273 19.6983 20.5273 20.1151V23.2579C20.5273 23.6747 20.3627 24.0744 20.0697 24.3691C19.7767 24.6638 19.3792 24.8293 18.9648 24.8293C18.5504 24.8293 18.153 24.6638 17.86 24.3691C17.567 24.0744 17.4023 23.6747 17.4023 23.2579V20.1151ZM23.6523 18.5437C24.0667 18.5437 24.4642 18.7092 24.7572 19.0039C25.0502 19.2986 25.2148 19.6983 25.2148 20.1151V23.2579C25.2148 23.6747 25.0502 24.0744 24.7572 24.3691C24.4642 24.6638 24.0667 24.8293 23.6523 24.8293C23.2379 24.8293 22.8405 24.6638 22.5475 24.3691C22.2545 24.0744 22.0898 23.6747 22.0898 23.2579V20.1151C22.0898 19.6983 22.2545 19.2986 22.5475 19.0039C22.8405 18.7092 23.2379 18.5437 23.6523 18.5437Z" fill="#3E62FF"/>
<circle cx="28.1445" cy="28.7854" r="4" fill="#D9D9D9"/>
<path d="M31.5085 25.6641C32.3364 26.4919 32.8014 27.6147 32.8014 28.7854C32.8014 29.9561 32.3364 31.0789 31.5085 31.9067C30.6807 32.7346 29.5579 33.1996 28.3872 33.1996C27.2165 33.1996 26.0937 32.7346 25.2659 31.9067C24.438 31.0789 23.973 29.9561 23.973 28.7854C23.973 27.6147 24.438 26.4919 25.2659 25.6641C26.0937 24.8362 27.2165 24.3712 28.3872 24.3712C29.5579 24.3712 30.6807 24.8362 31.5085 25.6641ZM26.0462 28.5092C25.9729 28.5092 25.9027 28.5383 25.8509 28.5901C25.7991 28.6419 25.77 28.7121 25.77 28.7854C25.77 28.8587 25.7991 28.9289 25.8509 28.9807C25.9027 29.0325 25.9729 29.0616 26.0462 29.0616L28.1114 29.0612L28.111 31.1264C28.111 31.1627 28.1181 31.1986 28.132 31.2321C28.1459 31.2656 28.1662 31.2961 28.1919 31.3217C28.2175 31.3474 28.248 31.3677 28.2815 31.3816C28.315 31.3955 28.3509 31.4026 28.3872 31.4026C28.4605 31.4026 28.5307 31.3735 28.5825 31.3217C28.6082 31.2961 28.6285 31.2656 28.6424 31.2321C28.6563 31.1986 28.6634 31.1627 28.6634 31.1264L28.6631 29.0612L30.7282 29.0616C30.7645 29.0616 30.8004 29.0545 30.8339 29.0406C30.8674 29.0267 30.8979 29.0064 30.9235 28.9807C30.9492 28.9551 30.9695 28.9246 30.9834 28.8911C30.9973 28.8576 31.0044 28.8217 31.0044 28.7854C31.0044 28.7491 30.9973 28.7132 30.9834 28.6797C30.9695 28.6462 30.9492 28.6157 30.9235 28.5901C30.8979 28.5644 30.8674 28.5441 30.8339 28.5302C30.8004 28.5163 30.7645 28.5092 30.7282 28.5092L28.6631 28.5096L28.6634 26.4444C28.6634 26.4081 28.6563 26.3722 28.6424 26.3387C28.6285 26.3052 28.6082 26.2747 28.5825 26.2491C28.5569 26.2234 28.5264 26.2031 28.4929 26.1892C28.4594 26.1753 28.4235 26.1682 28.3872 26.1682C28.3509 26.1682 28.315 26.1753 28.2815 26.1892C28.248 26.2031 28.2175 26.2234 28.1919 26.2491C28.1662 26.2747 28.1459 26.3052 28.132 26.3387C28.1181 26.3722 28.111 26.4081 28.111 26.4444L28.1114 28.5096L26.0462 28.5092Z" fill="#3E62FF"/>
</svg>
