<svg width="42" height="41" viewBox="0 0 42 41" fill="none" xmlns="http://www.w3.org/2000/svg">
<rect x="0.382812" width="41" height="41" rx="8" fill="#165246"/>
<path d="M18.7759 8.37172C18.0093 8.37172 17.274 8.68021 16.7319 9.22932C16.1899 9.77843 15.8853 10.5232 15.8853 11.2997V14.2277H14.44V11.2997C14.44 10.1349 14.8969 9.01777 15.71 8.19411C16.5231 7.37044 17.6259 6.90771 18.7759 6.90771C19.9258 6.90771 21.0287 7.37044 21.8418 8.19411C22.6549 9.01777 23.1117 10.1349 23.1117 11.2997V14.2277H21.6664V11.2997C21.6664 10.5232 21.3619 9.77843 20.8198 9.22932C20.2777 8.68021 19.5425 8.37172 18.7759 8.37172ZM14.44 14.2277H12.0698C11.5507 14.2279 11.049 14.4166 10.6557 14.7597C10.2624 15.1027 10.0036 15.5774 9.92644 16.0973L8.44213 26.1301C8.36523 26.6507 8.40008 27.182 8.5443 27.6876C8.68853 28.1933 8.93874 28.6616 9.27786 29.0604C9.61699 29.4592 10.037 29.7793 10.5094 29.9987C10.9817 30.2181 11.4952 30.3317 12.0149 30.3318H25.5354C26.0552 30.3319 26.5689 30.2185 27.0414 29.9991C27.5139 29.7798 27.9341 29.4598 28.2734 29.0609C28.6127 28.6621 28.863 28.1938 29.0074 27.688C29.1517 27.1822 29.1865 26.6508 29.1096 26.1301L27.6239 16.0973C27.5468 15.5776 27.2882 15.1032 26.8952 14.7602C26.5022 14.4171 26.0008 14.2282 25.482 14.2277H23.1117V16.4238C23.1117 16.6179 23.0356 16.8041 22.9001 16.9414C22.7645 17.0786 22.5807 17.1558 22.3891 17.1558C22.1974 17.1558 22.0136 17.0786 21.8781 16.9414C21.7426 16.8041 21.6664 16.6179 21.6664 16.4238V14.2277H15.8853V16.4238C15.8853 16.6179 15.8092 16.8041 15.6737 16.9414C15.5381 17.0786 15.3543 17.1558 15.1627 17.1558C14.971 17.1558 14.7872 17.0786 14.6517 16.9414C14.5162 16.8041 14.44 16.6179 14.44 16.4238V14.2277Z" fill="#03CB90"/>
<g clip-path="url(#clip0_786_35)">
<circle cx="29.041" cy="29.8772" r="4.16211" fill="#D9D9D9"/>
<path d="M33.3633 29.5925C33.3633 30.786 32.8892 31.9306 32.0453 32.7745C31.2013 33.6184 30.0568 34.0925 28.8633 34.0925C27.6698 34.0925 26.5252 33.6184 25.6813 32.7745C24.8374 31.9306 24.3633 30.786 24.3633 29.5925C24.3633 28.3991 24.8374 27.2545 25.6813 26.4105C26.5252 25.5666 27.6698 25.0925 28.8633 25.0925C30.0568 25.0925 31.2013 25.5666 32.0453 26.4105C32.8892 27.2545 33.3633 28.3991 33.3633 29.5925ZM31.1302 27.8882C31.09 27.8481 31.0421 27.8166 30.9895 27.7955C30.9368 27.7743 30.8805 27.764 30.8238 27.7652C30.7671 27.7664 30.7112 27.7789 30.6594 27.8022C30.6077 27.8254 30.5612 27.8589 30.5227 27.9005L28.5691 30.3896L27.3918 29.2117C27.3118 29.1372 27.206 29.0966 27.0967 29.0986C26.9874 29.1005 26.8832 29.1448 26.8059 29.2221C26.7286 29.2993 26.6843 29.4036 26.6824 29.5129C26.6804 29.6222 26.721 29.728 26.7955 29.808L28.2839 31.2969C28.324 31.3369 28.3717 31.3685 28.4243 31.3896C28.4768 31.4108 28.5331 31.4212 28.5898 31.4201C28.6464 31.4191 28.7023 31.4066 28.754 31.3835C28.8057 31.3604 28.8523 31.3271 28.8908 31.2857L31.1363 28.4788C31.2129 28.3992 31.2552 28.2927 31.2541 28.1823C31.2531 28.0719 31.2088 27.9663 31.1307 27.8882H31.1302Z" fill="#03CB90"/>
</g>
<defs>
<clipPath id="clip0_786_35">
<rect width="9" height="9" fill="white" transform="translate(24.3633 25.0925)"/>
</clipPath>
</defs>
</svg>
