<svg width="42" height="41" viewBox="0 0 42 41" fill="none" xmlns="http://www.w3.org/2000/svg">
<rect x="0.558594" width="41" height="41" rx="8" fill="#5F3237"/>
<path d="M18.9517 8.37172C18.185 8.37172 17.4498 8.68021 16.9077 9.22932C16.3656 9.77843 16.0611 10.5232 16.0611 11.2997V14.2277H14.6158V11.2997C14.6158 10.1349 15.0726 9.01777 15.8858 8.19411C16.6989 7.37044 17.8017 6.90771 18.9517 6.90771C20.1016 6.90771 21.2044 7.37044 22.0176 8.19411C22.8307 9.01777 23.2875 10.1349 23.2875 11.2997V14.2277H21.8422V11.2997C21.8422 10.5232 21.5377 9.77843 20.9956 9.22932C20.4535 8.68021 19.7183 8.37172 18.9517 8.37172ZM14.6158 14.2277H12.2456C11.7265 14.2279 11.2248 14.4166 10.8314 14.7597C10.4381 15.1027 10.1794 15.5774 10.1022 16.0973L8.61792 26.1301C8.54101 26.6507 8.57586 27.182 8.72008 27.6876C8.86431 28.1933 9.11452 28.6616 9.45364 29.0604C9.79277 29.4592 10.2128 29.7793 10.6852 29.9987C11.1575 30.2181 11.671 30.3317 12.1906 30.3318H25.7112C26.231 30.3319 26.7447 30.2185 27.2172 29.9991C27.6897 29.7798 28.1099 29.4598 28.4492 29.0609C28.7885 28.6621 29.0388 28.1938 29.1831 27.688C29.3274 27.1822 29.3623 26.6508 29.2854 26.1301L27.7997 16.0973C27.7225 15.5776 27.464 15.1032 27.071 14.7602C26.678 14.4171 26.1765 14.2282 25.6578 14.2277H23.2875V16.4238C23.2875 16.6179 23.2114 16.8041 23.0758 16.9414C22.9403 17.0786 22.7565 17.1558 22.5649 17.1558C22.3732 17.1558 22.1894 17.0786 22.0539 16.9414C21.9184 16.8041 21.8422 16.6179 21.8422 16.4238V14.2277H16.0611V16.4238C16.0611 16.6179 15.985 16.8041 15.8494 16.9414C15.7139 17.0786 15.5301 17.1558 15.3385 17.1558C15.1468 17.1558 14.963 17.0786 14.8275 16.9414C14.692 16.8041 14.6158 16.6179 14.6158 16.4238V14.2277Z" fill="#F15D5D"/>
<circle cx="29.6217" cy="30.2505" r="4" transform="rotate(-45 29.6217 30.2505)" fill="#D9D9D9"/>
<path d="M29.7931 25.6647C30.9639 25.6647 32.0867 26.1298 32.9145 26.9576C33.7423 27.7854 34.2074 28.9082 34.2074 30.0789C34.2074 31.2497 33.7423 32.3724 32.9145 33.2003C32.0867 34.0281 30.9639 34.4932 29.7931 34.4932C28.6224 34.4932 27.4996 34.0281 26.6718 33.2003C25.844 32.3724 25.3789 31.2497 25.3789 30.0789C25.3789 28.9082 25.844 27.7854 26.6718 26.9576C27.4996 26.1298 28.6224 25.6647 29.7931 25.6647ZM27.9425 31.5389C27.8907 31.5907 27.8616 31.661 27.8616 31.7343C27.8616 31.8075 27.8907 31.8778 27.9425 31.9296C27.9943 31.9814 28.0645 32.0105 28.1378 32.0105C28.2111 32.0105 28.2813 31.9814 28.3331 31.9296L29.7931 30.469L31.2532 31.9296C31.2788 31.9552 31.3093 31.9756 31.3428 31.9895C31.3763 32.0034 31.4122 32.0105 31.4485 32.0105C31.4848 32.0105 31.5207 32.0034 31.5542 31.9895C31.5877 31.9756 31.6182 31.9552 31.6438 31.9296C31.6956 31.8778 31.7247 31.8075 31.7247 31.7343C31.7247 31.698 31.7176 31.6621 31.7037 31.6286C31.6898 31.595 31.6695 31.5646 31.6438 31.5389L30.1833 30.0789L31.6438 28.6189C31.6695 28.5933 31.6898 28.5628 31.7037 28.5293C31.7176 28.4958 31.7247 28.4599 31.7247 28.4236C31.7247 28.3873 31.7176 28.3514 31.7037 28.3179C31.6898 28.2844 31.6695 28.2539 31.6438 28.2283C31.6182 28.2026 31.5877 28.1823 31.5542 28.1684C31.5207 28.1545 31.4848 28.1473 31.4485 28.1473C31.4122 28.1473 31.3763 28.1545 31.3428 28.1684C31.3093 28.1823 31.2788 28.2026 31.2532 28.2283L29.7931 29.6888L28.3331 28.2283C28.3075 28.2026 28.277 28.1823 28.2435 28.1684C28.21 28.1545 28.1741 28.1473 28.1378 28.1473C28.1015 28.1473 28.0656 28.1545 28.0321 28.1684C27.9986 28.1823 27.9681 28.2026 27.9425 28.2283C27.9168 28.2539 27.8965 28.2844 27.8826 28.3179C27.8687 28.3514 27.8616 28.3873 27.8616 28.4236C27.8616 28.4599 27.8687 28.4958 27.8826 28.5293C27.8965 28.5628 27.9168 28.5933 27.9425 28.6189L29.403 30.0789L27.9425 31.5389Z" fill="#F15D5D"/>
</svg>
