<svg width="41" height="41" viewBox="0 0 41 41" fill="none" xmlns="http://www.w3.org/2000/svg">
<rect width="41" height="41" rx="8" fill="#5B2A4A"/>
<path fill-rule="evenodd" clip-rule="evenodd" d="M22.1603 22.1603C23.7159 20.6047 24.5898 18.4949 24.5898 16.2949C24.5898 14.095 23.7159 11.9851 22.1603 10.4295C20.6047 8.87393 18.4949 8 16.2949 8C14.095 8 11.9851 8.87393 10.4295 10.4295C8.87393 11.9851 8 14.095 8 16.2949C8 18.4949 8.87393 20.6047 10.4295 22.1603C11.3901 23.1209 12.562 23.8215 13.8359 24.217V27.7104H10.8359L16 33L21.3359 27.7104H18.3359V24.3348C19.7712 23.9705 21.0956 23.2251 22.1603 22.1603ZM15.8636 20.6445C14.0266 20.5283 13.0056 19.548 12.9015 18.2887H14.3509C14.4761 18.9086 15.0281 19.355 15.8636 19.4756V16.7911L15.3237 16.6629C13.9573 16.3537 13.1368 15.5981 13.1368 14.4112C13.1368 13.069 14.2408 12.1203 15.8636 11.965V11.0163H16.678V11.9469C18.3898 12.0509 19.4591 12.9996 19.5646 14.2121H18.1349C18.0112 13.6119 17.4924 13.179 16.678 13.0886V15.6162L17.3205 15.7671C18.8392 16.1139 19.6883 16.7851 19.6883 18.0896C19.6883 19.5224 18.5768 20.5087 16.678 20.6384V21.5735H15.8636V20.6445ZM14.6209 14.3268C14.6209 14.8818 15.0552 15.2498 15.8576 15.4307L15.856 15.4292H15.8636V13.1067C15.0899 13.2424 14.6209 13.7084 14.6209 14.3268ZM18.2178 18.2058C18.2178 17.5784 17.7684 17.224 16.7956 17.0053L16.6795 16.9781V19.5028C17.6598 19.4123 18.2178 18.9206 18.2178 18.2058Z" fill="#EC41A1"/>
<path d="M25.5714 23.1856V13H29.4286V23.1856H32L27.4263 28L23 23.1856H25.5714Z" fill="#EC41A1"/>
</svg>
